<svg width="269" height="148" viewBox="0 0 269 148" fill="none" xmlns="http://www.w3.org/2000/svg">
    <path fill-rule="evenodd" clip-rule="evenodd"
        d="M103.704 93.5742C121.653 93.5742 136.204 79.0235 136.204 61.0742C136.204 57.7691 135.711 54.5792 134.794 51.5742H148.885C148.44 53.4963 148.204 55.5059 148.204 57.5742C148.204 71.3813 158.725 82.5742 171.704 82.5742C184.683 82.5742 195.204 71.3813 195.204 57.5742C195.204 43.7671 184.683 32.5742 171.704 32.5742C163.584 32.5742 156.425 36.9557 152.204 43.6177V43.5742H131.095C125.32 34.5534 115.21 28.5742 103.704 28.5742C89.0599 28.5742 76.6779 38.2597 72.6145 51.5742H25.5727H25.2041V51.5761C18.0149 51.651 12.5635 53.9223 8.42796 58.0464C4.39133 62.072 1.93441 67.5517 0 73.298L7.58193 75.8504C9.41374 70.4088 11.3921 66.3886 14.077 63.7111C16.5926 61.2024 20.0334 59.5742 25.5727 59.5742H71.2381C71.2155 60.0714 71.204 60.5715 71.204 61.0742C71.204 79.0235 85.7548 93.5742 103.704 93.5742ZM103.204 86.5742C117.011 86.5742 128.204 75.3813 128.204 61.5742C128.204 47.7671 117.011 36.5742 103.204 36.5742C89.3969 36.5742 78.204 47.7671 78.204 61.5742C78.204 75.3813 89.3969 86.5742 103.204 86.5742ZM171.343 77.1896C181.326 77.1896 189.42 68.5797 189.42 57.9588C189.42 47.3379 181.326 38.728 171.343 38.728C161.359 38.728 153.266 47.3379 153.266 57.9588C153.266 68.5797 161.359 77.1896 171.343 77.1896Z"
        fill="white" />
    <path fill-rule="evenodd" clip-rule="evenodd"
        d="M103.501 19.9997C88.0758 19.9997 74.6647 28.7292 67.8258 41.5745H29.9552C40.4977 20.8074 72.2374 -0.414074 76.2057 1.07396C80.2057 2.57396 73.2057 11.074 73.2057 11.074C92.3653 1.64183 117.706 2.07421 121.206 4.07396C124.706 6.07372 113.206 11.074 113.206 11.074C132.884 13.7903 144 17.8381 153.538 30.9797C152.523 31.7546 151.549 32.6003 150.624 33.5139C149.066 35.052 147.677 36.7502 146.472 38.5745H137.411C130.179 27.3889 117.692 19.9997 103.501 19.9997ZM24.5699 68.5745H63.6905C67.2008 87.5994 83.6891 102 103.501 102C125.868 102 144.001 83.6433 144.001 60.9997C144.001 60.7707 143.999 60.5417 143.995 60.3137C208.08 69.4543 246.206 82.1936 268.746 91.9617C224.92 83.3977 183.151 82.5515 147.023 85.8909C139.5 97.6404 140.428 111.677 144.746 112.462C147.079 112.886 148.422 112.77 149.387 112.688C150.696 112.575 151.307 112.522 152.746 113.962C155.246 116.462 136.478 140.573 108.746 133.462C108.746 133.462 121.245 144.462 118.746 145.462C118.609 145.517 118.444 145.592 118.25 145.679C114.937 147.176 103.144 152.504 70.7462 131.574C70.7462 131.574 68.2452 140.462 65.7462 140.462C63.2472 140.462 41.7687 132.751 33.2057 107.574C33.2057 107.574 27.7052 123.462 24.7057 117.462C21.734 111.518 19.8756 86.1687 24.5699 68.5745Z"
        fill="white" />
    <path
        d="M67.8258 41.5745V42.0745H68.126L68.2671 41.8094L67.8258 41.5745ZM29.9552 41.5745L29.5093 41.3481L29.1406 42.0745H29.9552V41.5745ZM76.2057 1.07396L76.3812 0.605799L76.3812 0.605796L76.2057 1.07396ZM73.2057 11.074L72.8197 10.7561L73.4265 11.5226L73.2057 11.074ZM113.206 11.074L113.006 10.6154L111.373 11.3257L113.137 11.5693L113.206 11.074ZM153.538 30.9797L153.841 31.3772L154.229 31.081L153.942 30.686L153.538 30.9797ZM150.624 33.5139L150.272 33.158L150.272 33.1581L150.624 33.5139ZM146.472 38.5745V39.0745H146.741L146.89 38.85L146.472 38.5745ZM137.411 38.5745L136.991 38.8459L137.139 39.0745H137.411V38.5745ZM63.6905 68.5745L64.1822 68.4837L64.1067 68.0745H63.6905V68.5745ZM24.5699 68.5745V68.0745H24.1858L24.0868 68.4456L24.5699 68.5745ZM143.995 60.3137L144.066 59.8187L143.485 59.7359L143.495 60.3223L143.995 60.3137ZM268.746 91.9617L268.65 92.4524L268.945 91.5029L268.746 91.9617ZM147.023 85.8909L146.977 85.393L146.733 85.4155L146.601 85.6213L147.023 85.8909ZM144.746 112.462L144.836 111.97L144.836 111.97L144.746 112.462ZM149.387 112.688L149.429 113.186L149.43 113.186L149.387 112.688ZM108.746 133.462L108.87 132.977L108.416 133.837L108.746 133.462ZM118.746 145.462L118.56 144.997L118.559 144.998L118.746 145.462ZM118.25 145.679L118.045 145.223L118.044 145.223L118.25 145.679ZM70.7462 131.574L71.0175 131.154L70.4484 130.786L70.2649 131.439L70.7462 131.574ZM33.2057 107.574L33.679 107.413L33.2099 106.034L32.7332 107.41L33.2057 107.574ZM24.7057 117.462L25.1529 117.238L25.1529 117.238L24.7057 117.462ZM68.2671 41.8094C75.0237 29.1188 88.2701 20.4997 103.501 20.4997V19.4997C87.8815 19.4997 74.3056 28.3397 67.3844 41.3395L68.2671 41.8094ZM29.9552 42.0745H67.8258V41.0745H29.9552V42.0745ZM76.3812 0.605796C76.0071 0.465499 75.5433 0.47923 75.0625 0.562817C74.5672 0.648928 73.9854 0.822028 73.335 1.06739C72.0327 1.55865 70.401 2.36048 68.5402 3.41947C64.8154 5.53921 60.1254 8.71652 55.2355 12.5865C45.4672 20.3171 34.8295 30.8683 29.5093 41.3481L30.401 41.8008C35.6234 31.5135 46.1268 21.0704 55.8561 13.3706C60.7149 9.52531 65.3628 6.37832 69.0348 4.28858C70.8723 3.24283 72.4537 2.46863 73.6879 2.00303C74.3057 1.76998 74.823 1.61945 75.2338 1.54804C75.659 1.47411 75.9082 1.49642 76.0301 1.54213L76.3812 0.605796ZM73.2057 11.074C73.5916 11.3918 73.5917 11.3917 73.5918 11.3916C73.5919 11.3915 73.592 11.3913 73.5922 11.3912C73.5925 11.3908 73.5929 11.3903 73.5934 11.3897C73.5944 11.3885 73.5958 11.3868 73.5976 11.3845C73.6013 11.3801 73.6066 11.3736 73.6135 11.3651C73.6272 11.3482 73.6473 11.3234 73.6732 11.2912C73.7248 11.2269 73.7995 11.133 73.8929 11.0133C74.0795 10.7741 74.341 10.4313 74.642 10.0156C75.2425 9.18593 76.0062 8.05701 76.6455 6.87422C77.278 5.70422 77.8188 4.42772 77.9223 3.31559C77.9746 2.75356 77.919 2.19503 77.6708 1.70747C77.4164 1.20783 76.9846 0.832071 76.3812 0.605799L76.0301 1.54213C76.4267 1.69086 76.6512 1.90884 76.7796 2.16116C76.9142 2.42556 76.968 2.77718 76.9266 3.22296C76.8425 4.12645 76.3834 5.25621 75.7658 6.3987C75.1552 7.52841 74.4189 8.61825 73.8319 9.42923C73.5391 9.83377 73.2849 10.1668 73.1044 10.3983C73.0142 10.5139 72.9424 10.6041 72.8935 10.665C72.869 10.6955 72.8503 10.7186 72.8378 10.734C72.8316 10.7416 72.8269 10.7474 72.8238 10.7511C72.8223 10.7529 72.8212 10.7543 72.8205 10.7551C72.8202 10.7555 72.8199 10.7558 72.8198 10.756C72.8197 10.7561 72.8197 10.7561 72.8197 10.7562C72.8197 10.7561 72.8197 10.7561 73.2057 11.074ZM121.454 3.63983C120.935 3.34358 120.082 3.10709 119.01 2.92109C117.92 2.73202 116.547 2.58633 114.951 2.49843C111.757 2.32258 107.638 2.37664 103.033 2.789C93.8291 3.61325 82.6383 5.87306 72.9848 10.6254L73.4265 11.5226C82.9327 6.84274 93.9919 4.60267 103.123 3.78501C107.685 3.37642 111.756 3.32402 114.896 3.49692C116.467 3.58339 117.798 3.72588 118.839 3.90637C119.897 4.08994 120.601 4.30441 120.958 4.5081L121.454 3.63983ZM113.206 11.074C113.405 11.5325 113.405 11.5325 113.405 11.5324C113.405 11.5323 113.406 11.5323 113.406 11.5322C113.406 11.532 113.407 11.5317 113.408 11.5314C113.409 11.5307 113.411 11.5297 113.414 11.5285C113.42 11.5259 113.429 11.5222 113.44 11.5173C113.462 11.5074 113.495 11.493 113.537 11.4741C113.622 11.4364 113.745 11.381 113.901 11.3099C114.212 11.1678 114.651 10.9629 115.167 10.7107C116.198 10.2072 117.542 9.51165 118.78 8.7497C120.002 7.99781 121.18 7.14587 121.826 6.31919C122.147 5.90917 122.398 5.42794 122.366 4.9177C122.331 4.36667 121.982 3.94172 121.454 3.63983L120.958 4.5081C121.304 4.70614 121.361 4.8749 121.368 4.98008C121.377 5.12606 121.304 5.36356 121.038 5.70354C120.512 6.37683 119.472 7.14991 118.256 7.89805C117.057 8.63613 115.745 9.31565 114.728 9.81218C114.221 10.06 113.79 10.2613 113.485 10.4005C113.333 10.47 113.213 10.524 113.131 10.5605C113.09 10.5788 113.058 10.5926 113.037 10.6019C113.027 10.6065 113.019 10.6099 113.014 10.6122C113.011 10.6133 113.009 10.6142 113.008 10.6147C113.007 10.615 113.007 10.6152 113.007 10.6153C113.006 10.6154 113.006 10.6154 113.006 10.6154C113.006 10.6154 113.006 10.6154 113.206 11.074ZM153.942 30.686C149.128 24.0529 143.901 19.6974 137.386 16.6641C130.885 13.6376 123.127 11.9386 113.274 10.5787L113.137 11.5693C122.963 12.9256 130.602 14.6087 136.964 17.5706C143.311 20.5257 148.409 24.7649 153.133 31.2734L153.942 30.686ZM153.234 30.5823C152.202 31.3701 151.213 32.2297 150.272 33.158L150.975 33.8698C151.886 32.9709 152.843 32.1391 153.841 31.3772L153.234 30.5823ZM150.272 33.1581C148.689 34.7211 147.278 36.4463 146.055 38.2989L146.89 38.85C148.075 37.0541 149.442 35.3829 150.975 33.8697L150.272 33.1581ZM137.411 39.0745H146.472V38.0745H137.411V39.0745ZM103.501 20.4997C117.514 20.4997 129.846 27.7953 136.991 38.8459L137.831 38.303C130.511 26.9825 117.871 19.4997 103.501 19.4997V20.4997ZM63.6905 68.0745H24.5699V69.0745H63.6905V68.0745ZM103.501 101.5C83.9389 101.5 67.6503 87.2801 64.1822 68.4837L63.1988 68.6652C66.7513 87.9186 83.4393 102.5 103.501 102.5V101.5ZM143.501 60.9997C143.501 83.373 125.586 101.5 103.501 101.5V102.5C126.15 102.5 144.501 83.9136 144.501 60.9997H143.501ZM143.495 60.3223C143.499 60.5468 143.501 60.7728 143.501 60.9997H144.501C144.501 60.7687 144.499 60.5367 144.495 60.3051L143.495 60.3223ZM268.945 91.5029C246.359 81.7147 208.189 68.9647 144.066 59.8187L143.925 60.8087C207.972 69.9439 246.054 82.6725 268.547 92.4204L268.945 91.5029ZM147.069 86.3887C183.155 83.0532 224.876 83.8986 268.65 92.4524L268.842 91.4709C224.963 82.8968 183.146 82.0498 146.977 85.393L147.069 86.3887ZM144.836 111.97C144.028 111.823 143.252 111.023 142.693 109.462C142.144 107.93 141.861 105.802 141.944 103.304C142.11 98.3136 143.734 91.9554 147.444 86.1605L146.601 85.6213C142.789 91.5758 141.116 98.1105 140.945 103.271C140.859 105.849 141.147 108.112 141.752 109.8C142.346 111.459 143.305 112.708 144.657 112.954L144.836 111.97ZM149.344 112.19C148.403 112.27 147.108 112.383 144.836 111.97L144.657 112.954C147.05 113.389 148.442 113.27 149.429 113.186L149.344 112.19ZM153.1 113.608C152.36 112.868 151.777 112.453 151.165 112.265C150.559 112.078 149.978 112.135 149.344 112.19L149.43 113.186C150.105 113.128 150.484 113.102 150.871 113.221C151.25 113.337 151.693 113.616 152.393 114.315L153.1 113.608ZM108.622 133.946C122.661 137.546 134.434 133.239 142.368 127.727C146.333 124.972 149.352 121.908 151.228 119.36C152.164 118.088 152.829 116.927 153.18 115.983C153.354 115.512 153.46 115.07 153.469 114.682C153.477 114.296 153.39 113.898 153.1 113.608L152.393 114.315C152.415 114.338 152.474 114.421 152.469 114.66C152.464 114.896 152.396 115.221 152.242 115.635C151.936 116.46 151.328 117.537 150.423 118.767C148.616 121.221 145.679 124.209 141.798 126.905C134.04 132.296 122.562 136.489 108.87 132.977L108.622 133.946ZM118.932 145.926C119.208 145.815 119.422 145.612 119.519 145.322C119.609 145.058 119.582 144.779 119.518 144.534C119.392 144.046 119.064 143.473 118.648 142.878C117.802 141.671 116.45 140.178 115.041 138.737C113.626 137.291 112.136 135.879 110.999 134.829C110.431 134.304 109.951 133.868 109.613 133.564C109.443 133.412 109.31 133.293 109.218 133.212C109.172 133.171 109.137 133.14 109.113 133.119C109.101 133.108 109.092 133.1 109.086 133.095C109.083 133.092 109.081 133.09 109.079 133.089C109.078 133.088 109.078 133.087 109.077 133.087C109.077 133.087 109.077 133.087 109.077 133.086C109.077 133.086 109.077 133.086 108.746 133.462C108.416 133.837 108.416 133.837 108.416 133.837C108.416 133.837 108.416 133.837 108.416 133.837C108.417 133.838 108.417 133.838 108.418 133.839C108.419 133.84 108.422 133.842 108.424 133.845C108.43 133.85 108.439 133.858 108.451 133.868C108.474 133.888 108.509 133.919 108.554 133.959C108.644 134.039 108.776 134.157 108.944 134.308C109.28 134.61 109.756 135.042 110.321 135.563C111.45 136.607 112.928 138.007 114.326 139.436C115.729 140.871 117.033 142.315 117.828 143.452C118.232 144.029 118.471 144.479 118.55 144.784C118.589 144.935 118.574 144.996 118.572 145.002C118.572 145.003 118.572 145.001 118.575 144.997C118.577 144.993 118.58 144.99 118.582 144.987C118.588 144.982 118.585 144.988 118.56 144.997L118.932 145.926ZM118.456 146.135C118.653 146.046 118.807 145.976 118.934 145.925L118.559 144.998C118.41 145.058 118.235 145.137 118.045 145.223L118.456 146.135ZM70.4749 131.994C86.7085 142.481 97.8242 146.42 105.332 147.531C112.866 148.647 116.742 146.909 118.456 146.135L118.044 145.223C116.445 145.946 112.768 147.621 105.478 146.542C98.1613 145.459 87.1819 141.597 71.0175 131.154L70.4749 131.994ZM65.7462 140.962C66.2108 140.962 66.63 140.755 66.9885 140.472C67.3481 140.188 67.6828 139.799 67.9907 139.361C68.6071 138.484 69.1702 137.335 69.644 136.212C70.1199 135.084 70.5154 133.96 70.7914 133.119C70.9296 132.698 71.0383 132.347 71.1126 132.1C71.1497 131.977 71.1783 131.88 71.1976 131.813C71.2073 131.78 71.2147 131.754 71.2197 131.737C71.2222 131.728 71.2241 131.721 71.2254 131.717C71.2261 131.715 71.2266 131.713 71.2269 131.712C71.2271 131.711 71.2272 131.71 71.2273 131.71C71.2274 131.71 71.2274 131.71 71.2274 131.71C71.2275 131.709 71.2275 131.709 70.7462 131.574C70.2649 131.439 70.2649 131.438 70.2649 131.439C70.2649 131.439 70.2649 131.439 70.2649 131.439C70.2648 131.439 70.2647 131.439 70.2646 131.44C70.2643 131.441 70.2639 131.442 70.2634 131.444C70.2622 131.448 70.2605 131.454 70.2582 131.462C70.2536 131.478 70.2466 131.502 70.2374 131.534C70.2189 131.598 70.1913 131.692 70.1551 131.812C70.0829 132.051 69.9766 132.395 69.8413 132.807C69.5703 133.632 69.1844 134.729 68.7227 135.823C68.2588 136.923 67.7282 137.995 67.1727 138.785C66.8948 139.181 66.6241 139.486 66.3685 139.687C66.112 139.89 65.9063 139.962 65.7462 139.962V140.962ZM32.7323 107.735C37.0516 120.435 44.6315 128.735 51.4495 133.859C54.8576 136.42 58.077 138.19 60.6077 139.32C61.8729 139.885 62.9693 140.292 63.8344 140.559C64.6803 140.82 65.3521 140.962 65.7462 140.962V139.962C65.5155 139.962 64.9694 139.863 64.129 139.603C63.3077 139.35 62.2492 138.958 61.0156 138.407C58.5487 137.305 55.3947 135.573 52.0503 133.06C45.3636 128.034 37.9227 119.89 33.679 107.413L32.7323 107.735ZM24.2584 117.685C24.6588 118.486 25.1552 119.036 25.7799 119.236C26.4221 119.441 27.0461 119.229 27.5828 118.86C28.1181 118.491 28.6334 117.923 29.1162 117.266C29.6029 116.604 30.0759 115.824 30.5199 115.006C31.4079 113.372 32.1973 111.553 32.7631 110.15C33.0465 109.446 33.2748 108.845 33.4325 108.418C33.5113 108.205 33.5725 108.036 33.6141 107.919C33.6349 107.861 33.6508 107.816 33.6615 107.785C33.6669 107.77 33.671 107.758 33.6738 107.75C33.6752 107.746 33.6762 107.743 33.677 107.741C33.6773 107.74 33.6776 107.739 33.6778 107.739C33.6779 107.738 33.678 107.738 33.6781 107.738C33.6781 107.738 33.6782 107.738 33.2057 107.574C32.7332 107.41 32.7332 107.41 32.7332 107.41C32.7331 107.411 32.7331 107.411 32.733 107.411C32.7329 107.411 32.7327 107.412 32.7324 107.413C32.7318 107.414 32.7308 107.417 32.7296 107.421C32.727 107.428 32.7232 107.439 32.7181 107.454C32.7078 107.483 32.6925 107.526 32.6723 107.583C32.6318 107.696 32.5719 107.862 32.4945 108.072C32.3396 108.491 32.1148 109.083 31.8356 109.776C31.2763 111.163 30.5032 112.942 29.6411 114.529C29.2101 115.323 28.7612 116.06 28.3104 116.674C27.8556 117.293 27.4178 117.759 27.0156 118.036C26.6149 118.312 26.317 118.358 26.0843 118.283C25.8341 118.203 25.5024 117.937 25.1529 117.238L24.2584 117.685ZM24.0868 68.4456C21.7229 77.3057 21.0132 88.0939 21.2632 97.4006C21.3883 102.057 21.7539 106.353 22.2761 109.863C22.7956 113.356 23.4774 116.123 24.2585 117.685L25.1529 117.238C24.4481 115.829 23.7832 113.198 23.2652 109.716C22.7499 106.252 22.3871 101.997 22.2629 97.3737C22.0143 88.1212 22.7227 77.4375 25.053 68.7033L24.0868 68.4456Z"
        fill="white" />
</svg>